<svg xmlns="http://www.w3.org/2000/svg" viewBox="0 0 360.76 231.54"><path d="M102.76,127h18.93l33,85.73H135.34l-22-60.3a34.61,34.61,0,0,1-1.12-3.8c-.27-1.21-.52-2.43-.76-3.64H111c-.19,1.21-.43,2.43-.73,3.66a32.93,32.93,0,0,1-1.14,3.78l-22,60.3H70.36ZM93,180.54h37.67l4.16,13.36h-46Z" transform="translate(-70.36 -126.98)"/><path d="M160.71,150.89h16.52l.41,6.91h.3a17.65,17.65,0,0,1,7.12-5.88,23.18,23.18,0,0,1,10.4-2.32Q205,149.6,211,155t6,19v38.67h-17.4v-39.2c0-3.87-.83-6.57-2.49-8.12s-4-2.31-7.06-2.31a12.5,12.5,0,0,0-7,2.14,13.5,13.5,0,0,0-4.95,6v41.49h-17.4Z" transform="translate(-70.36 -126.98)"/><path d="M231.67,150.89h16.52l.41,6.91h.29a17.78,17.78,0,0,1,7.12-5.88,23.21,23.21,0,0,1,10.4-2.32Q276,149.6,282,155t6,19v38.67H270.57v-39.2c0-3.87-.83-6.57-2.49-8.12s-4-2.31-7.06-2.31a12.47,12.47,0,0,0-7,2.14,13.37,13.37,0,0,0-5,6v41.49h-17.4Z" transform="translate(-70.36 -126.98)"/><path d="M299.29,180.83q0-14.58,8.84-23.17t23-8.59q14.17,0,23,8.59t8.82,23.17v1.88q0,14.58-8.82,23.17t-23,8.58q-14.12,0-23-8.58t-8.84-23.17Zm17.81,2.87q0,8.63,3.66,13.07t10.34,4.45q6.67,0,10.31-4.45t3.64-13.07v-3.86q0-8.62-3.69-13.07c-2.47-3-5.88-4.45-10.26-4.45s-7.8,1.48-10.28,4.45-3.72,7.32-3.72,13.07Z" transform="translate(-70.36 -126.98)"/><path d="M374.81,150.89h16.53l.41,6.91H392a17.65,17.65,0,0,1,7.12-5.88,23.18,23.18,0,0,1,10.4-2.32q9.54,0,15.56,5.42t6,19v38.67h-17.4v-39.2c0-3.87-.83-6.57-2.49-8.12s-4-2.31-7.06-2.31a12.45,12.45,0,0,0-7,2.14,13.46,13.46,0,0,0-5,6v41.49h-17.4Z" transform="translate(-70.36 -126.98)"/><path d="M81.08,271.39h56.54v13.66H99.07v23.79h33.69v13.47H99.07v34.4h-18Z" transform="translate(-70.36 -126.98)" style="fill:#f36f3b"/><path d="M143.89,324.83q0-14.35,8.65-23.05t22.06-8.71q13.47,0,21.18,8.18t7.7,22.53v6.27H155.79V319.21h30.47v-1.35a12.8,12.8,0,0,0-3-8.64q-3-3.56-8.67-3.55-6.51,0-9.9,4.89t-3.4,13.33v3.75q0,8.21,3.66,13.07t10.81,4.86a14.93,14.93,0,0,0,8.56-2.46,22.32,22.32,0,0,0,5.85-5.62l12.25,8q-2.93,5.63-9.9,9.31A34.75,34.75,0,0,1,176,358.52q-15,0-23.55-8.73t-8.56-23.08Z" transform="translate(-70.36 -126.98)" style="fill:#f36f3b"/><path d="M211.22,324.83q0-14.35,8.64-23.05t22.06-8.71q13.49,0,21.18,8.18t7.71,22.53v6.27h-47.7V319.21h30.47v-1.35a12.79,12.79,0,0,0-3-8.64q-3.06-3.56-8.68-3.55a11.31,11.31,0,0,0-9.9,4.89q-3.41,4.9-3.4,13.33v3.75q0,8.21,3.66,13.07T243,345.57a14.87,14.87,0,0,0,8.55-2.46,22.52,22.52,0,0,0,5.86-5.62l12.25,8q-2.94,5.63-9.91,9.31a34.71,34.71,0,0,1-16.46,3.69q-15,0-23.56-8.73t-8.55-23.08Z" transform="translate(-70.36 -126.98)" style="fill:#f36f3b"/><path d="M278.54,324.83q0-13.83,7.47-22.47t19.43-8.64a22.73,22.73,0,0,1,10,2,16.22,16.22,0,0,1,6.53,5.39V267H339.3v89.71H322.78l-.35-7.09h-.29a14.82,14.82,0,0,1-6.42,5.92,21.78,21.78,0,0,1-10.22,2.34q-12.6,0-19.78-8.67t-7.18-22.5ZM299.67,340q3.3,4.74,9.87,4.75a12.18,12.18,0,0,0,7.7-2.44,15,15,0,0,0,4.66-5.88V315.16a14.93,14.93,0,0,0-4.48-5.88,12.08,12.08,0,0,0-7.82-2.44q-6.51,0-9.88,4.78T296.36,324v3.58C296.36,332.66,297.46,336.79,299.67,340Z" transform="translate(-70.36 -126.98)" style="fill:#f36f3b"/><path d="M357.62,340.33q2.83-3,8.17-3c3.55,0,6.28,1,8.17,3A10.87,10.87,0,0,1,374,355c-1.89,2-4.62,3-8.17,3s-6.28-1-8.17-3.05a10.34,10.34,0,0,1-2.85-7.33A10.23,10.23,0,0,1,357.62,340.33Z" transform="translate(-70.36 -126.98)" style="fill:#f36f3b"/></svg>